<?xml version="1.0" encoding="UTF-8"?>
<svg width="266px" height="59px" viewBox="0 0 266 59" version="1.1" xmlns="http://www.w3.org/2000/svg" xmlns:xlink="http://www.w3.org/1999/xlink">
    <!-- Generator: Sketch 50 (54983) - http://www.bohemiancoding.com/sketch -->
    <title>Group</title>
    <desc>Created with Sketch.</desc>
    <defs></defs>
    <g id="Page-1" stroke="none" stroke-width="1" fill="none" fill-rule="evenodd" opacity="0.870000005">
        <g id="Desktop" transform="translate(-33.000000, -24.000000)">
            <g id="Group" transform="translate(35.000000, 26.000000)">
                <path d="M107,35.9325598 L107,21.9572154 C107,21.6062346 107.078412,21.3589565 107.23524,21.2153735 C107.392067,21.0717904 107.627305,21 107.940959,21 L111.108856,21 C111.422511,21 111.657748,21.0717904 111.814576,21.2153735 C111.971403,21.3589565 112.049815,21.6062346 112.049815,21.9572154 L112.049815,35.2146483 C112.049815,36.2356831 112.355624,37.0306957 112.967251,37.5997099 C113.578878,38.1687241 114.417891,38.453227 115.484317,38.453227 C116.550743,38.453227 117.394985,38.1687241 118.017066,37.5997099 C118.639148,37.0306957 118.950185,36.2356831 118.950185,35.2146483 L118.950185,21.9572154 C118.950185,21.5955989 119.025983,21.3456618 119.177583,21.2073967 C119.329183,21.0691315 119.561807,21 119.875461,21 L123.059041,21 C123.372695,21 123.607933,21.0717904 123.76476,21.2153735 C123.921588,21.3589565 124,21.6062346 124,21.9572154 L124,35.9325598 C124,36.9216873 123.827493,37.8230561 123.482472,38.6366933 C123.137452,39.4503304 122.680046,40.1203745 122.11024,40.6468455 C121.540434,41.1733166 120.881769,41.6200127 120.134225,41.9869471 C119.386681,42.3538815 118.623466,42.6144541 117.844557,42.768673 C117.065648,42.9228918 116.278909,43 115.484317,43 C114.689725,43 113.9056,42.9202328 113.131919,42.7606962 C112.358237,42.6011595 111.597636,42.3405868 110.850092,41.9789703 C110.102549,41.6173538 109.446497,41.1733166 108.881919,40.6468455 C108.31734,40.1203745 107.862548,39.4503304 107.517528,38.6366933 C107.172507,37.8230561 107,36.9216873 107,35.9325598 Z M129,36.0518098 L129,28.1823989 C129,27.2039222 129.174991,26.3087337 129.524977,25.4968062 C129.874964,24.6848788 130.338175,24.0056805 130.914623,23.4591909 C131.491072,22.9127013 132.152433,22.4520956 132.898728,22.0773598 C133.645023,21.7026241 134.406748,21.4293834 135.183924,21.2576295 C135.9611,21.0858756 136.735691,21 137.50772,21 C138.310631,21 139.110956,21.0884779 139.908719,21.2654365 C140.706483,21.442395 141.47078,21.718238 142.201635,22.0929737 C142.932489,22.4677095 143.580984,22.9100992 144.147139,23.4201561 C144.713294,23.9302131 145.163637,24.5469564 145.498183,25.2704045 C145.832729,25.9938527 146,26.7667335 146,27.5890703 C146,27.963806 145.940812,28.2058192 145.822434,28.3151171 C145.704056,28.424415 145.459584,28.4790632 145.08901,28.4790632 L142.016349,28.4790632 C141.810474,28.4790632 141.645777,28.4400288 141.522252,28.3619588 C141.398728,28.2838889 141.321526,28.2032178 141.290645,28.1199432 C141.259764,28.0366686 141.22631,27.9091563 141.190282,27.7374024 C141.154254,27.5656485 141.125946,27.4485454 141.105359,27.3860894 C140.909778,26.8343952 140.508329,26.3711871 139.900999,25.9964514 C139.293669,25.6217157 138.495918,25.4343506 137.50772,25.4343506 C136.468054,25.4343506 135.626555,25.7544326 134.983197,26.3946061 C134.339839,27.0347796 134.018165,27.8701155 134.018165,28.9006388 L134.018165,35.317956 C134.018165,36.3276606 134.334693,37.1187575 134.967757,37.6912704 C135.600821,38.2637833 136.447467,38.5500355 137.50772,38.5500355 C138.598855,38.5500355 139.455795,38.2741925 140.078565,37.7224982 C140.701335,37.170804 141.012716,36.3068429 141.012716,35.1305891 L138.171662,35.1305891 C137.821676,35.1305891 137.579777,35.0551226 137.445958,34.9041874 C137.31214,34.7532521 137.245232,34.5216481 137.245232,34.2093683 L137.245232,31.7111427 C137.245232,31.3988629 137.314713,31.1646566 137.453678,31.0085167 C137.592644,30.8523768 137.831969,30.774308 138.171662,30.774308 L145.08901,30.774308 C145.428703,30.774308 145.665455,30.8523768 145.799273,31.0085167 C145.933092,31.1646566 146,31.3988629 146,31.7111427 L146,36.3484741 C145.948531,37.2332668 145.73494,38.0503866 145.359219,38.7998581 C144.983498,39.5493295 144.50742,40.176482 143.930972,40.6813343 C143.354523,41.1861866 142.700882,41.6181671 141.970027,41.9772889 C141.239173,42.3364106 140.498036,42.5966398 139.746594,42.7579844 C138.995152,42.9193289 138.248868,43 137.50772,43 C136.725397,43 135.950806,42.9219312 135.183924,42.7657913 C134.417041,42.6096515 133.657891,42.3520245 132.906449,41.9929028 C132.155007,41.633781 131.493645,41.1939936 130.922343,40.6735273 C130.351042,40.153061 129.887831,39.4946811 129.532698,38.6983676 C129.177564,37.9020542 129,37.0198771 129,36.0518098 Z M152,41.0794948 L152,21.936107 C152,21.6240698 152.061085,21.3900454 152.183255,21.2340267 C152.305426,21.0780081 152.534493,21 152.870464,21 L160.750449,21 C162.369214,21 163.636718,21.1638171 164.553,21.4914562 C165.469282,21.8190952 166.278653,22.3417498 166.981135,23.0594354 C167.561447,23.6315036 168.006856,24.3517787 168.317373,25.2202823 C168.627891,26.0887859 168.783148,27.0378849 168.783148,28.0676077 C168.783148,29.6173926 168.335194,30.9695336 167.439274,32.1240713 C166.543354,33.278609 165.54564,34.0482893 164.446101,34.4331352 L168.844233,40.9702823 C168.946042,41.1158997 168.996946,41.2615149 168.996946,41.4071322 C169.007127,41.4903422 168.991855,41.5735508 168.951132,41.6567608 C168.869685,41.8855881 168.681341,42 168.386094,42 L164.690442,42 C164.323929,42 164.031232,41.9297927 163.812343,41.7893759 C163.593453,41.6489592 163.366931,41.4019334 163.13277,41.0482912 L159.742544,35.8997028 C159.610192,35.7124805 159.521111,35.5070591 159.475296,35.2834324 C159.429482,35.0598057 159.406576,34.7191702 159.406576,34.2615156 L159.406576,31.718425 C159.406576,31.4063877 159.472751,31.1723633 159.605102,31.0163447 C159.737454,30.8603261 159.971612,30.782318 160.307582,30.782318 L160.933705,30.782318 C161.717635,30.782318 162.409926,30.5326919 163.0106,30.0334324 C163.611274,29.5341728 163.911606,28.9205088 163.911606,28.192422 C163.911606,27.3811252 163.636726,26.7258569 163.086956,26.2265973 C162.537187,25.7273378 161.849986,25.4777117 161.025332,25.4777117 L156.871541,25.4777117 L156.871541,41.0794948 C156.871541,41.4227357 156.797731,41.6619607 156.650108,41.7971768 C156.502485,41.9323929 156.275963,42 155.970535,42 L152.870464,42 C152.575217,42 152.356331,41.9349932 152.213798,41.8049777 C152.071265,41.6749622 152,41.433137 152,41.0794948 Z M173.062208,41.7040059 C173.031104,41.6209195 173.010368,41.5430271 173,41.4703264 C173,41.3560825 173.036288,41.2366475 173.108865,41.1120178 L180.18507,21.9970326 C180.309487,21.654301 180.472783,21.4024489 180.674961,21.2414688 C180.877139,21.0804888 181.149298,21 181.491446,21 L184.539658,21 C184.881806,21 185.148781,21.0778924 185.340591,21.2336795 C185.532401,21.3894667 185.700881,21.6439151 185.846034,21.9970326 L192.891135,41.1120178 C192.963712,41.2262617 193,41.3456967 193,41.4703264 C193,41.5534129 192.979264,41.6313053 192.937792,41.7040059 C192.854847,41.9013363 192.657855,42 192.346812,42 L189.00311,42 C188.650594,42 188.391395,41.9350897 188.225505,41.8052671 C188.059616,41.6754445 187.914464,41.4235924 187.790047,41.0497033 L186.903577,38.5259644 L179.096423,38.5259644 L178.209953,41.0497033 C178.085536,41.4235924 177.940384,41.6754445 177.774495,41.8052671 C177.608605,41.9350897 177.349406,42 176.99689,42 L173.653188,42 C173.342145,42 173.145153,41.9013363 173.062208,41.7040059 Z M180,34 L185,34 L182.508143,27 L180,34 Z M206,35.7707594 L206,28.2292406 C206,27.2611733 206.175607,26.368587 206.526827,25.5514549 C206.878047,24.7343229 207.344585,24.0525222 207.926457,23.5060326 C208.508329,22.959543 209.176684,22.4937327 209.931545,22.1085877 C210.686405,21.7234426 211.459601,21.442395 212.251156,21.2654365 C213.042711,21.0884779 213.831633,21 214.617946,21 C215.634911,21 216.615166,21.1301146 217.558742,21.3903478 C218.502317,21.6505809 219.364628,22.0227087 220.145698,22.5067424 C220.926769,22.990776 221.571536,23.6283377 222.080019,24.4194464 C222.588501,25.2105552 222.895158,26.0953346 223,27.0738112 C223,27.4485469 222.929233,27.6957647 222.787697,27.815472 C222.64616,27.9351792 222.381439,27.9950319 221.993525,27.9950319 L218.911193,27.9950319 C218.711994,27.9950319 218.554734,27.950793 218.439408,27.8623137 C218.324082,27.7738344 218.219242,27.6202992 218.124884,27.4017033 C218.030527,27.1831075 217.967623,27.0529929 217.93617,27.0113556 C217.590193,26.4700706 217.16559,26.0771245 216.66235,25.8325053 C216.159109,25.5878862 215.477648,25.4655784 214.617946,25.4655784 C213.538077,25.4655784 212.673145,25.7518306 212.023127,26.3243435 C211.373108,26.8968564 211.048104,27.6775441 211.048104,28.6664301 L211.048104,35.317956 C211.048104,36.3276606 211.373108,37.1135529 212.023127,37.6756565 C212.673145,38.2377601 213.538077,38.5188077 214.617946,38.5188077 C215.540553,38.5188077 216.305887,38.3392495 216.913969,37.9801278 C217.522051,37.621006 217.883749,37.0771269 217.999075,36.3484741 C218.030527,36.1402876 218.056737,35.9867523 218.077706,35.8878637 C218.098674,35.7889751 218.14061,35.6744743 218.203515,35.5443577 C218.26642,35.4142411 218.352913,35.3231609 218.462997,35.2711143 C218.573081,35.2190676 218.711994,35.1930447 218.879741,35.1930447 L222.024977,35.1930447 C222.370955,35.1930447 222.61995,35.2789204 222.77197,35.4506742 C222.923991,35.6224281 223,35.9008734 223,36.2860185 C223,37.0875365 222.837498,37.8474059 222.512488,38.5656494 C222.187479,39.2838929 221.749771,39.9084431 221.199352,40.4393187 C220.648933,40.9701943 220.014651,41.4308 219.296485,41.8211498 C218.578319,42.2114995 217.818228,42.5055585 217.016189,42.7033357 C216.21415,42.9011129 215.414743,43 214.617946,43 C213.831633,43 213.042711,42.9115221 212.251156,42.7345635 C211.459601,42.557605 210.686405,42.2765574 209.931545,41.8914123 C209.176684,41.5062673 208.508329,41.040457 207.926457,40.4939674 C207.344585,39.9474778 206.878047,39.2656771 206.526827,38.4485451 C206.175607,37.631413 206,36.7388267 206,35.7707594 Z M227,24.5830861 L227,21.9347181 C227,21.6231438 227.071561,21.3894667 227.214687,21.2336795 C227.357812,21.0778924 227.604301,21 227.954163,21 L243.06174,21 C243.411601,21 243.655441,21.0778924 243.793265,21.2336795 C243.931089,21.3894667 244,21.6231438 244,21.9347181 L244,24.5830861 C244,24.8946603 243.931089,25.1257411 243.793265,25.2763353 C243.655441,25.4269295 243.411601,25.5022255 243.06174,25.5022255 L238.084191,25.5022255 L238.084191,41.0808605 C238.084191,41.4235922 238.004678,41.6624622 237.84565,41.7974777 C237.686622,41.9324933 237.448084,42 237.130028,42 L233.901777,42 C233.583722,42 233.347834,41.9324933 233.194107,41.7974777 C233.04038,41.6624622 232.963517,41.4235922 232.963517,41.0808605 L232.963517,25.5022255 L227.954163,25.5022255 C227.593699,25.5022255 227.344559,25.4269295 227.206735,25.2763353 C227.068911,25.1257411 227,24.8946603 227,24.5830861 Z M248,41.0808605 L248,21.9347181 C248,21.6231438 248.069402,21.3894667 248.208208,21.2336795 C248.347014,21.0778924 248.592591,21 248.944945,21 L263.055055,21 C263.407409,21 263.652986,21.0778924 263.791792,21.2336795 C263.930598,21.3894667 264,21.6231438 264,21.9347181 L264,24.5519288 C264,24.863503 263.930598,25.0945838 263.791792,25.245178 C263.652986,25.3957723 263.407409,25.4710682 263.055055,25.4710682 L253.141141,25.4710682 L253.141141,29.2099407 L261.677678,29.2099407 C262.030032,29.2099407 262.275608,29.2852366 262.414414,29.4358309 C262.553221,29.5864251 262.622623,29.8175059 262.622623,30.1290801 L262.622623,32.652819 C262.622623,32.9643932 262.553221,33.195474 262.414414,33.3460682 C262.275608,33.4966625 262.030032,33.5719585 261.677678,33.5719585 L253.141141,33.5719585 L253.141141,41.0497033 C253.141141,41.4547498 253.079747,41.7143911 252.956957,41.828635 C252.834167,41.9428789 252.580583,42 252.196196,42 L248.944945,42 C248.592591,42 248.347014,41.924704 248.208208,41.7741098 C248.069402,41.6235156 248,41.3924348 248,41.0808605 Z" id="UGRA-CTF" fill="#F76E1D"></path>
                <path d="M18.4085941,54.9499094 C18.0623192,54.970884 17.713312,54.9815206 17.3618659,54.9815206 C7.77317215,54.9815206 0,47.0636638 0,37.2964923 C0,27.5293209 7.77317215,19.611464 17.3618659,19.611464 C17.9188435,19.611464 18.4696952,19.6381796 19.0132537,19.6904213 C19.9197107,8.66507036 29.1512648,0 40.4057971,0 C49.7296977,0 57.6651441,5.94719882 60.6287209,14.2566625 C61.8766155,14.0194919 63.1645354,13.8953794 64.4814312,13.8953794 C75.8135238,13.8953794 85,23.085749 85,34.4226444 C85,45.7595398 77.0479886,55 65.715896,55 C65.2315161,55 64.748801,54.9831172 64.2684932,54.9499094 L18.4085941,54.9499094 Z" id="Combined-Shape" stroke="#F76E1D" stroke-width="4"></path>
                <g id="Group-2" transform="translate(30.000000, 17.000000)">
                    <path d="M10.3841273,20.2661821 L10.3841273,21.7532254 C10.3841273,21.9880155 10.4305401,22.1848202 10.5176936,22.3477831 C10.6048472,22.5107461 10.7327415,22.6386404 10.8957044,22.7257939 C11.0586674,22.8129475 11.255472,22.8593603 11.4902622,22.8593603 L11.5097378,22.8593603 C11.744528,22.8593603 11.9413326,22.8129475 12.1042956,22.7257939 C12.2672585,22.6386404 12.3951528,22.5107461 12.4823064,22.3477831 C12.5694599,22.1848202 12.6158727,21.9880155 12.6158727,21.7532254 L12.6158727,20.2661821 C13.282943,19.8707157 13.7317455,19.1315593 13.7317455,18.2849751 C13.7317455,17.0217936 12.732559,15.9977826 11.5,15.9977826 C10.267441,15.9977826 9.26825453,17.0217936 9.26825453,18.2849751 C9.26825453,19.1315593 9.71705702,19.8707157 10.3841273,20.2661821 Z M3.8458278,11.9285714 L19.1541722,11.9285714 C20.4914503,11.9285714 20.9763797,12.0678098 21.4652686,12.3292705 C21.9541574,12.5907311 22.3378403,12.974414 22.5993009,13.4633029 C22.8607616,13.9521918 23,14.4371211 23,15.7743992 L23,24.1541722 C23,25.4914503 22.8607616,25.9763797 22.5993009,26.4652686 C22.3378403,26.9541574 21.9541574,27.3378403 21.4652686,27.5993009 C20.9763797,27.8607616 20.4914503,28 19.1541722,28 L3.8458278,28 C2.50854969,28 2.02362033,27.8607616 1.53473144,27.5993009 C1.04584256,27.3378403 0.662159695,26.9541574 0.400699056,26.4652686 C0.139238417,25.9763797 5.04274515e-16,25.4914503 3.40505179e-16,24.1541722 L1.03584031e-16,15.7743992 C-6.01853049e-17,14.4371211 0.139238417,13.9521918 0.400699056,13.4633029 C0.662159695,12.974414 1.04584256,12.5907311 1.53473144,12.3292705 C2.02362033,12.0678098 2.50854969,11.9285714 3.8458278,11.9285714 Z" id="Combined-Shape" fill="#F76E1D"></path>
                    <path d="M4.71033581,14.6530291 C4.71146655,10.5727113 4.71146655,8.50867637 4.71033581,8.46092441 C4.5767694,2.82030814 6.75394031,3.73451624e-16 11.2418485,0 C15.760506,0 17.946395,2.78783481 17.7995156,8.36350443 C17.7989469,8.38509064 17.7989469,10.660589 17.7995156,15.1899996" id="Path-2" stroke="#F76E1D" stroke-width="4"></path>
                </g>
            </g>
        </g>
    </g>
</svg>